# ProBuilder 5.0.7
# https://unity3d.com/unity/features/worldbuilding/probuilder
# 5/04/2024 6:17:49 p. m.

mtllib ./grass.mtl
o grass

g Cube (10)
v -0.3339863 -2.214954 0.1768036
v -0.3339863 -2.214954 -0.2048874
v -0.3339863 -0.3701441 -0.2839565
v -0.3339863 -0.2465715 0.1086388
v -0.3339863 0.3117299 -0.2335396
v -0.3339863 1.545161 -0.1809902
v -0.3340182 -2.24406 -3.642345
v -0.3340182 -2.24406 -4.202173
v -0.3340182 0.461733 -3.13372
v -0.3340182 0.6429777 -2.135668
v -0.3340182 1.461842 -2.762533
v -0.3340182 3.270922 -2.682843
v -0.3340182 -2.24406 -1.050449
v -0.3340182 -2.24406 -1.610277
v -0.3340182 0.461733 -1.726249
v -0.3340182 0.6429777 -1.150427
v -0.3340182 1.461842 -1.652302
v -0.3340182 3.270922 -1.575227
v -0.3340182 -2.24406 -4.825525
v -0.3340182 -2.245257 -5.413636
v -0.3340182 0.461733 -6.383466
v -0.3340182 0.6429777 -5.68327
v -0.3340182 1.374508 -6.212233
v -0.3340182 3.05122 -5.406002
v -0.3340182 -2.24406 -4.193795
v -0.3340182 -2.24406 -4.827212
v -0.3340182 0.461733 -4.998445
v -0.3340182 0.6429777 -4.026461
v -0.3340182 2.44423 -4.827212
v -0.3340182 4.253311 -3.411127
v -0.3340182 -2.24406 -6.653267
v -0.3340182 -2.24406 -7.213096
v -0.3340182 0.461733 -7.329067
v -0.3340182 0.6429777 -6.753245
v -0.3340182 1.461842 -7.25512
v -0.3340182 3.270922 -7.178046
v -0.333986 -2.214954 -8.04115
v -0.333986 -2.214954 -8.422841
v -0.333986 -0.3701442 -8.50191
v -0.333986 -0.2465716 -8.109315
v -0.333986 0.3117298 -8.451493
v -0.333986 1.545161 -8.398945
v 0.1467068 -2.214954 -8.49956
v 0.1592586 -2.214954 -8.118076
v 0.1618582 -0.3701442 -8.039049
v 0.1489483 -0.2465716 -8.431432
v 0.1602006 0.3117298 -8.089438
v 0.1584725 1.545161 -8.141959
v 0.2723266 -2.24406 -4.682477
v 0.2907364 -2.24406 -4.122953
v 0.255601 0.461733 -5.190828
v 0.2227819 0.6429777 -6.188339
v 0.2433954 1.461842 -5.561812
v 0.2407748 3.270922 -5.64146
v 0.1870953 -2.24406 -7.272971
v 0.2055051 -2.24406 -6.713445
v 0.2093181 0.461733 -6.597538
v 0.1903831 0.6429777 -7.173049
v 0.2068863 1.461842 -6.671446
v 0.2043518 3.270922 -6.748478
v 0.3112345 -2.24406 -3.499937
v 0.3305738 -2.245257 -2.912145
v 0.3624655 0.461733 -1.942838
v 0.3394398 0.6429777 -2.642657
v 0.3568348 1.374508 -2.113979
v 0.3303227 3.05122 -2.919774
v 0.2904608 -2.24406 -4.131326
v 0.3112898 -2.24406 -3.49825
v 0.3169205 0.461733 -3.327109
v 0.2849581 0.6429777 -4.29857
v 0.3112898 2.44423 -3.49825
v 0.2647237 4.253312 -4.913571
v 0.3713371 -2.24406 -1.673182
v 0.3897462 -2.24406 -1.113656
v 0.3935599 0.461733 -0.9977493
v 0.3746249 0.6429777 -1.573261
v 0.3911282 1.461842 -1.071657
v 0.3885936 3.270922 -1.148689
v 0.4169437 -2.214954 -0.2860492
v 0.4294955 -2.214954 0.09543458
v 0.4320957 -0.3701442 0.1744617
v 0.4191852 -0.2465716 -0.2179212
v 0.4304375 0.3117298 0.1240728
v 0.4287093 1.545161 0.07155215

vt 0.8250952 0.1457297
vt 0.8137229 0.1457297
vt 0.8113671 0.200695
vt 0.8230643 0.2043768
vt 0.8128693 0.2210111
vt 0.8144349 0.2577607
vt 0.7113053 0.1448625
vt 0.6946255 0.1448625
vt 0.7264596 0.2254803
vt 0.7561961 0.2308804
vt 0.7375189 0.2552782
vt 0.7398933 0.309179
vt 0.7885298 0.1448625
vt 0.7718499 0.1448625
vt 0.7683946 0.2254803
vt 0.785551 0.2308804
vt 0.7705978 0.2552782
vt 0.7728942 0.309179
vt 0.676053 0.1448625
vt 0.6585305 0.1448268
vt 0.6296348 0.2254803
vt 0.6504968 0.2308804
vt 0.6347366 0.2526759
vt 0.6587579 0.3026329
vt 0.6709009 0.2254803
vt 0.6998608 0.2308804
vt 0.6760027 0.2845479
vt 0.7181943 0.3384486
vt 0.6215962 0.1448625
vt 0.6049163 0.1448625
vt 0.6014611 0.2254803
vt 0.6186174 0.2308804
vt 0.6036642 0.2552782
vt 0.6059606 0.309179
vt 0.5802448 0.1457297
vt 0.5688725 0.1457297
vt 0.5665166 0.200695
vt 0.5782139 0.2043768
vt 0.5680188 0.2210111
vt 0.5695845 0.2577606
vt 0.81123 0.145725
vt 0.8094942 0.1457842
vt 0.8129154 0.20432
vt 0.8023418 0.2020926
vt 0.806621 0.2217315
vt 0.8134956 0.2573937
vt 0.8117089 0.2042863

vn -1 0 0
vn 0.9994592 1.574892E-07 -0.03288403

usemtl ramas_y_rocas
f 3/3/1 2/2/1 1/1/1 4/4/1
f 5/5/1 3/3/1 4/4/1 6/6/1
f 9/9/1 8/8/1 7/7/1 10/10/1
f 11/11/1 9/9/1 10/10/1 12/12/1
f 15/15/1 14/14/1 13/13/1 16/16/1
f 17/17/1 15/15/1 16/16/1 18/18/1
f 21/21/1 20/20/1 19/19/1 22/22/1
f 23/23/1 21/21/1 22/22/1 24/24/1
f 27/25/1 26/19/1 25/8/1 28/26/1
f 29/27/1 27/25/1 28/26/1 30/28/1
f 33/31/1 32/30/1 31/29/1 34/32/1
f 35/33/1 33/31/1 34/32/1 36/34/1
f 39/37/1 38/36/1 37/35/1 40/38/1
f 41/39/1 39/37/1 40/38/1 42/40/1
f 45/3/2 44/42/2 43/41/2 46/43/2
f 47/45/2 45/44/2 46/47/2 48/46/2
f 51/9/2 50/8/2 49/7/2 52/10/2
f 53/11/2 51/9/2 52/10/2 54/12/2
f 57/15/2 56/14/2 55/13/2 58/16/2
f 59/17/2 57/15/2 58/16/2 60/18/2
f 63/21/2 62/20/2 61/19/2 64/22/2
f 65/23/2 63/21/2 64/22/2 66/24/2
f 69/25/2 68/19/2 67/8/2 70/26/2
f 71/27/2 69/25/2 70/26/2 72/28/2
f 75/31/2 74/30/2 73/29/2 76/32/2
f 77/33/2 75/31/2 76/32/2 78/34/2
f 81/37/2 80/36/2 79/35/2 82/38/2
f 83/39/2 81/37/2 82/38/2 84/40/2

