# ProBuilder 5.0.7
# https://unity3d.com/unity/features/worldbuilding/probuilder
# 2/04/2024 9:30:49 p. m.

mtllib ./rama_parada.mtl
o rama parada

g Cube (2)
v -1.508659 -2.269472 1.505166
v -2.002046 -2.269472 0
v -2.002046 0.03446651 0
v -1.508659 0.03446651 1.505165
v -1.508659 -2.269472 -1.505166
v -1.508659 0.03446651 -1.505165
v 1.508659 -2.269472 -1.505166
v 2.002046 -2.269472 0
v 2.002046 0.03446651 0
v 1.508659 0.03446651 -1.505165
v 1.508659 -2.269472 1.505166
v 1.508659 0.03446651 1.505165
v 0 -2.269472 1.99741
v 0 0.03446651 2.010714
v 0 -2.269472 -1.99741
v 0 0.03446651 -2.010714
v -0.4348068 5.674959 -10.03309
v -7.350468E-06 5.674959 -11.24108
v -2.599911E-06 6.075314 -10.20749
v -0.3276485 5.974656 -10.16364
v 0.4347905 5.674962 -10.0331
v 0.3276433 5.974658 -10.16365
v -0.3276604 5.375261 -9.902538
v -1.130926E-05 5.274603 -9.858692
v 0.3276354 5.375268 -9.902544
v 0 -2.269472 0
v -2.246325E-07 3.388451 -2.933965
v 1.241962 3.388451 -2.517788
v 1.648129 3.388451 -1.2787
v -2.246325E-07 3.388451 0.3765649
v -1.241963 3.388451 -0.03961243
v 1.241962 3.388451 -0.03961243
v -1.64813 3.388451 -1.2787
v -1.241963 3.388451 -2.517788
v -2.246325E-07 6.977126 -2.655982
v 1.033389 6.977126 -2.309698
v -2.246325E-07 10.3696 0.9413712
v 1.033388 10.3696 1.287652
v 1.371345 6.977126 -1.2787
v 1.371344 10.3696 2.31865
v -2.246325E-07 6.977126 0.09858444
v -1.03339 6.977126 -0.2477027
v -2.246325E-07 10.3696 3.695934
v -1.03339 10.3696 3.349647
v 1.033389 6.977126 -0.2477027
v 1.033388 10.3696 3.349647
v -1.371347 6.977126 -1.2787
v -1.371347 10.3696 2.31865
v -1.03339 6.977126 -2.309698
v -1.03339 10.3696 1.287652
v -1.016392E-06 13.32646 -0.505319
v 0.6680294 13.45316 -0.3207726
v 0.8864996 13.83038 0.2286863
v -1.016392E-06 14.3343 0.962698
v -0.668033 14.2076 0.7781484
v 0.6680294 14.2076 0.7781484
v -0.8865032 13.83038 0.2286863
v -0.668033 13.45316 -0.3207726
v -1.016392E-06 13.75724 -4.412658
v 0.4023205 13.87927 -4.469972
v 0.5338951 14.24258 -4.640609
v -1.016392E-06 14.72793 -4.868555
v -0.4023249 14.6059 -4.811244
v 0.4023213 14.6059 -4.811243
v -0.5338987 14.24258 -4.640609
v -0.4023241 13.87927 -4.469972
v -1.808151E-06 11.52694 -5.631412
v 0.4023189 11.52595 -5.766228
v 0.5338943 11.523 -6.167612
v -1.016392E-06 11.51906 -6.703812
v -0.4023249 11.52005 -6.568996
v 0.4023213 11.52005 -6.568998
v -0.5338987 11.523 -6.167612
v -0.4023241 11.52595 -5.766233
v -4.18343E-06 7.752552 -4.695551
v 0.4023157 7.824434 -4.809608
v 0.5338927 8.038456 -5.149188
v -1.016392E-06 8.324364 -5.602822
v -0.4023249 8.252479 -5.488766
v 0.4023213 8.25248 -5.488767
v -0.5338995 8.038456 -5.149188
v -0.4023257 7.824439 -4.809608
v -7.350468E-06 5.472503 -7.433987
v 0.3276362 5.531045 -7.526875
v 0.4347913 5.705342 -7.803425
v -1.808151E-06 5.938181 -8.172859
v -0.3276477 5.87964 -8.079972
v 0.3276433 5.879641 -8.079974
v -0.4348021 5.705342 -7.803424
v -0.3276525 5.531048 -7.526872
v 1.137675 5.182788 -2.413743
v -2.246325E-07 5.182788 -2.794973
v 1.509737 5.182788 -1.2787
v -1.137677 5.182788 -0.1436576
v -2.246325E-07 5.182788 0.2375747
v 1.137675 5.182788 -0.1436576
v -1.509738 5.182788 -1.2787
v -1.137677 5.182788 -2.413743
v -2.246325E-07 4.28562 -2.864469
v 1.189819 4.28562 -2.465765
v 1.578933 4.28562 -1.2787
v -1.350448 8.158321 5.105944
v -0.7630917 8.158321 5.302766
v -0.7630917 7.695132 5.338639
v -1.377369 7.695132 5.132797
v -2.246325E-07 4.28562 0.3070697
v -1.18982 4.28562 -0.09163499
v 1.189819 4.28562 -0.09163499
v 4.786092 2.193569 -0.1566725
v 4.741246 2.026913 -0.1566725
v 4.6678 2.052881 0.08097887
v 4.71573 2.218446 0.0710027
v -1.578934 4.28562 -1.2787
v -1.18982 4.28562 -2.465765
v -1.109016 5.064779 1.889994
v -0.3635144 5.064779 2.13981
v -0.3635144 4.476877 2.185346
v -1.143185 4.476877 1.924081
v -1.192008 6.296631 4.076602
v -0.6046511 6.296631 4.273425
v -0.6046511 5.833443 4.309298
v -1.218928 5.833443 4.103456
v 3.95005 5.941587 -0.2676297
v 4.111997 5.941587 -0.7616813
v 4.140797 5.56819 -0.7616813
v 3.971751 5.56819 -0.2459766
v 6.299287 5.999248 -0.1123023
v 6.451972 5.945265 -0.6063539
v 6.354656 5.583623 -0.6063539
v 6.19528 5.639972 -0.09064925
v 6.758223 4.329391 0.04302509
v 6.910907 4.275408 -0.4510265
v 6.813591 3.913766 -0.4510265
v 6.654215 3.970114 0.06467813

vt 0.2596548 0.5469905
vt 0.2819831 0.5617228
vt 0.2819831 0.6056532
vt 0.2596548 0.5909209
vt 0.283541 0.5806092
vt 0.283541 0.6245397
vt 0.2200299 0.5933118
vt 0.1977016 0.5785795
vt 0.1977016 0.62251
vt 0.2200299 0.6372423
vt 0.1961437 0.559693
vt 0.1961437 0.6036235
vt 0.2239935 0.5478445
vt 0.2238879 0.5916264
vt 0.2556913 0.5924578
vt 0.2557968 0.6365368
vt 0.3286045 0.831849
vt 0.3290375 0.8471701
vt 0.3208362 0.843261
vt 0.3273848 0.8394727
vt 0.3103005 0.83551
vt 0.3135917 0.8422314
vt 0.3253133 0.8251276
vt 0.3180687 0.824098
vt 0.3115201 0.8278865
vt 0.2398424 0.5701512
vt 0.2631226 0.7107998
vt 0.2336785 0.7113805
vt 0.2152973 0.6992526
vt 0.2368544 0.6738285
vt 0.2662986 0.6732478
vt 0.2140148 0.6837048
vt 0.2846798 0.6853757
vt 0.2859623 0.7009235
vt 0.2609169 0.7761226
vt 0.2364176 0.7766058
vt 0.2323729 0.8006344
vt 0.2078736 0.8011177
vt 0.2211233 0.7665147
vt 0.1925793 0.7910265
vt 0.2390601 0.7453602
vt 0.2635595 0.744877
vt 0.2105161 0.769872
vt 0.2350155 0.7693888
vt 0.2200562 0.7535779
vt 0.1915122 0.7780897
vt 0.2788538 0.7549682
vt 0.2503098 0.77948
vt 0.2799209 0.7679049
vt 0.2513769 0.7924167
vt 0.243852 0.8731707
vt 0.2283264 0.8763379
vt 0.219368 0.8783141
vt 0.2322036 0.8759933
vt 0.2477293 0.8728262
vt 0.2196067 0.8784509
vt 0.2566877 0.87085
vt 0.256449 0.8707132
vt 0.2748557 0.9250209
vt 0.266842 0.9296815
vt 0.2654265 0.9390687
vt 0.2784731 0.9486211
vt 0.2864868 0.9439604
vt 0.2695499 0.9473479
vt 0.2879023 0.9345734
vt 0.2837789 0.9262941
vt 0.2845262 0.8961054
vt 0.2771275 0.8992858
vt 0.2775429 0.9042661
vt 0.2930354 0.9079316
vt 0.3004341 0.9047511
vt 0.2834972 0.9081386
vt 0.3000187 0.8997708
vt 0.2940644 0.8958985
vt 0.2771004 0.8136855
vt 0.2695371 0.8180237
vt 0.269462 0.8264508
vt 0.2842993 0.8347208
vt 0.2918628 0.8303826
vt 0.2749259 0.8337702
vt 0.2919378 0.8219556
vt 0.2864738 0.8146363
vt 0.2988293 0.8007929
vt 0.2926698 0.8043258
vt 0.2926086 0.8111888
vt 0.3046919 0.8179238
vt 0.3108514 0.8143909
vt 0.2970583 0.8171496
vt 0.3109125 0.8075279
vt 0.3064628 0.8015671
vt 0.235048 0.7439932
vt 0.2620198 0.7434612
vt 0.2182103 0.7328836
vt 0.2649291 0.7090623
vt 0.2379573 0.7095943
vt 0.2170355 0.7186413
vt 0.2817668 0.7201719
vt 0.2829416 0.7344142
vt 0.2625712 0.7271305
vt 0.2343632 0.7276869
vt 0.2167538 0.7160681
vt 0.2277534 0.7062763
vt 0.2138285 0.706551
vt 0.2135439 0.6973184
vt 0.228107 0.6970312
vt 0.2374059 0.6917114
vt 0.2656138 0.6911551
vt 0.2155252 0.7011731
vt 0.1403438 0.6771491
vt 0.1412877 0.6737825
vt 0.1409479 0.6713144
vt 0.1400182 0.6747845
vt 0.2832233 0.7027738
vt 0.2844519 0.7176688
vt 0.2481893 0.6842214
vt 0.2305151 0.6845701
vt 0.2301538 0.6728517
vt 0.248638 0.6724871
vt 0.232586 0.6829409
vt 0.2186611 0.6832156
vt 0.2183764 0.673983
vt 0.2329396 0.6736958
vt 0.1588219 0.7463341
vt 0.1593333 0.7525333
vt 0.1587271 0.7455348
vt 0.1581933 0.7390639
vt 0.1081407 0.7555889
vt 0.108847 0.7607198
vt 0.1108954 0.7534145
vt 0.1101581 0.7480587
vt 0.09724809 0.7239462
vt 0.09795444 0.7290772
vt 0.1000028 0.7217718
vt 0.09926553 0.716416

vn -0.9502501 1.289349E-07 0.3114881
vn -0.9502501 1.966696E-07 -0.3114881
vn 0.9502501 1.628022E-07 -0.311488
vn 0.9502501 1.628023E-07 0.311488
vn 0.3101857 3.935154E-07 0.950676
vn 0.3139571 -0.002737327 0.949421
vn 0.3177285 -0.005475047 0.948166
vn -0.310181 -0.005489457 0.9506617
vn -0.3139571 -0.002744532 0.9494209
vn -0.3177332 3.924823E-07 0.9481801
vn -0.3139571 -0.002744532 -0.9494209
vn -0.310181 -0.005489457 -0.9506617
vn -0.3177332 3.924823E-07 -0.9481801
vn 0.3139571 -0.002737327 -0.949421
vn 0.3101857 3.935154E-07 -0.950676
vn 0.3177285 -0.005475047 -0.948166
vn -0.9245552 0.1856173 -0.3327821
vn -0.6210234 0.5349309 -0.3376443
vn -0.3174916 0.8842446 -0.3425065
vn 0.7083422 0.658215 -0.2549597
vn 0.3541738 0.129428 -0.5858772
vn 5.383581E-06 -0.3993589 -0.9167947
vn -0.3057623 -0.5796899 -0.5684468
vn -0.6115152 -0.7600013 -0.2201073
vn 0.2497078 -0.9301006 -0.2693677
vn 0.5483239 -0.6828592 -0.2871059
vn 0.84694 -0.4356177 -0.304844
vn 0 -1 0
vn 0.3074339 -0.2525451 -0.9174449
vn 0.9500878 -0.01847965 -0.3114347
vn -0.2884406 0.4193871 0.860765
vn 0.9282459 0.2139539 0.3042751
vn 0.2884406 0.4193868 0.8607652
vn -0.9282459 0.2139535 0.3042751
vn -0.3074339 -0.2525457 -0.9174449
vn -0.9500878 -0.01847973 -0.3114347
vn 0.2240593 0.7090231 -0.6686432
vn 0.9023046 0.3136332 -0.2957713
vn -0.2240611 -0.7090225 0.6686432
vn 0.9023048 -0.3136326 0.2957713
vn 0.2240613 -0.7090225 0.6686432
vn -0.9023047 -0.3136328 0.2957713
vn -0.2240591 0.7090228 -0.6686436
vn -0.9023047 0.3136329 -0.2957713
vn 0.2882239 -0.4208333 -0.8601316
vn 0.3012474 -0.4151708 -0.8582996
vn 0.3142709 -0.4095083 -0.8564675
vn 0.9490701 -0.04982284 -0.3111008
vn 0.9455529 -0.05821489 -0.3199677
vn 0.9420357 -0.06660693 -0.3288347
vn -0.2659547 0.5471455 0.7936623
vn -0.291826 0.5478088 0.7835633
vn -0.3176974 0.5484719 0.7734643
vn 0.9047165 0.3058417 0.2965618
vn 0.9262694 0.270295 0.2561304
vn 0.9478223 0.2347484 0.215699
vn 0.2645085 0.5540488 0.7893448
vn 0.2911195 0.546112 0.7849976
vn 0.3177305 0.5381752 0.7806503
vn -0.9103852 0.2866083 0.29842
vn -0.9281455 0.2704233 0.2499883
vn -0.9459058 0.2542383 0.2015566
vn -0.288988 -0.4156058 -0.8624139
vn -0.3018238 -0.4163829 -0.8575187
vn -0.3146595 -0.41716 -0.8526236
vn -0.9488173 -0.05489754 -0.3110179
vn -0.9450487 -0.05826081 -0.3214866
vn -0.9412801 -0.06162408 -0.3319553
vn 0.2137361 -0.9710081 -0.1070518
vn 0.2434657 -0.9629997 -0.1113102
vn 0.2731952 -0.9549913 -0.1155687
vn 0.9166287 -0.3874176 -0.0984858
vn 0.9182649 -0.3834668 -0.09861329
vn 0.919901 -0.3795161 -0.09874079
vn -0.2034837 0.9768552 0.06594115
vn -0.243074 0.9672536 0.06037268
vn -0.2826642 0.957652 0.05480421
vn 0.8537662 0.520353 -0.01777502
vn 0.8984725 0.4259806 -0.01949083
vn 0.9431788 0.3316082 -0.02120665
vn 0.2019894 0.9775446 0.06005687
vn 0.2415992 0.9675061 0.06234464
vn 0.2812091 0.9574675 0.06463241
vn -0.8622289 0.5064951 -0.004896162
vn -0.9038519 0.4147923 -0.02300556
vn -0.9454749 0.3230896 -0.04111496
vn -0.2152866 -0.9699448 -0.1133964
vn -0.2450759 -0.9628185 -0.1093798
vn -0.2748652 -0.9556923 -0.1053632
vn -0.9168893 -0.3866369 -0.09912551
vn -0.9185092 -0.3829132 -0.09849533
vn -0.9201292 -0.3791895 -0.09786514
vn 0.2610765 -0.4628966 0.8470924
vn 0.2708291 -0.4629932 0.8439097
vn 0.2805817 -0.4630897 0.840727
vn 0.9268208 -0.1811701 0.3289084
vn 0.9311895 -0.1770396 0.318429
vn 0.9355584 -0.1729091 0.3079496
vn -0.2644753 0.4787909 -0.8371453
vn -0.2714781 0.4770818 -0.8358463
vn -0.2784809 0.4753726 -0.8345473
vn 0.9275833 0.1829181 -0.3257765
vn 0.9313648 0.1791306 -0.3168009
vn 0.9351462 0.175343 -0.3078254
vn 0.264178 0.477369 -0.8380506
vn 0.2711984 0.4771181 -0.8359162
vn 0.2782188 0.4768672 -0.8337818
vn -0.928148 0.1842268 -0.323422
vn -0.931854 0.1785668 -0.315684
vn -0.93556 0.1729069 -0.3079461
vn -0.2616738 -0.4656608 0.8453916
vn -0.2713757 -0.462928 0.8437705
vn -0.2810777 -0.4601953 0.8421494
vn -0.9275833 -0.1829183 0.3257763
vn -0.9318381 -0.1763146 0.3169404
vn -0.9360929 -0.1697109 0.3081044
vn 0.3098094 0.2288218 0.9228536
vn 0.2668744 0.2363429 0.9332269
vn 0.2239393 0.2438641 0.9436003
vn 0.9473678 0.08010616 0.3099632
vn 0.9218205 0.1022614 0.3678283
vn 0.8962732 0.1244166 0.4256934
vn -0.3027073 -0.3105375 -0.9010742
vn -0.2555557 -0.3087645 -0.9148442
vn -0.2084042 -0.3069915 -0.928614
vn 0.9465477 -0.09049015 -0.3096111
vn 0.917701 -0.1171542 -0.3723223
vn 0.8888544 -0.1438182 -0.4350336
vn 0.3038488 -0.2990432 -0.9045712
vn 0.2545916 -0.3089623 -0.9149282
vn 0.2053343 -0.3188813 -0.9252851
vn -0.9454939 -0.102213 -0.3091826
vn -0.9208844 -0.1133144 -0.3674363
vn -0.8962749 -0.1244158 -0.42569
vn -0.3091398 0.2379639 0.9207637
vn -0.2676445 0.236196 0.9331133
vn -0.2261493 0.2344281 0.9454628
vn -0.9465451 0.09049208 0.3096185
vn -0.9243753 0.09920707 0.3636023
vn -0.9022055 0.1079221 0.4175862
vn 0.3036566 -0.7322077 0.6096429
vn 0.9434994 -0.2655623 0.1982056
vn -0.3080791 0.697189 -0.6473135
vn 0.9482981 0.2199833 -0.2287753
vn 0.3080766 0.6971896 -0.6473141
vn -0.9482952 0.2199901 -0.2287803
vn -0.3036643 -0.7322053 0.609642
vn -0.9435009 -0.2655585 0.1982039
vn 0.197197 -0.9771148 0.07975013
vn 0.2489667 -0.9643892 0.07107636
vn 0.3007365 -0.9516636 0.0624026
vn 0.8732318 -0.4862608 0.03188491
vn 0.9077357 -0.4105847 0.01822392
vn 0.9422396 -0.3349086 0.004562937
vn -0.1572251 0.9853274 0.06641029
vn -0.222638 0.9709742 0.05501639
vn -0.2880509 0.956621 0.04362249
vn 0.8568183 0.5155706 -0.007025186
vn 0.898078 0.429104 0.004299665
vn 0.9393378 0.3426374 0.01562452
vn 0.1633466 0.9855446 0.04494156
vn 0.2242543 0.9709272 0.05469796
vn 0.2851619 0.9563097 0.06445435
vn -0.8332984 0.5522497 0.02518317
vn -0.8877678 0.4435824 0.01031073
vn -0.9422373 0.3349151 -0.004561709
vn -0.1931441 -0.9790675 0.06420409
vn -0.2476972 -0.9645684 0.07087381
vn -0.3022503 -0.9500694 0.07754354
vn -0.8568097 -0.5155849 0.007027457
vn -0.9005793 -0.4219125 0.01427766
vn -0.944349 -0.3282402 0.02152787
vn 0.3168781 0.07324973 -0.9456335
vn 0.9477084 0.07309399 -0.3106544
vn -0.3168791 0.07324966 0.9456332
vn 0.9477084 0.073094 0.3106543
vn 0.3168797 0.07324946 0.9456331
vn -0.9477084 0.0730938 0.3106543
vn -0.3168775 0.07324988 -0.9456337
vn -0.9477084 0.07309382 -0.3106543
vn 0.9178728 -0.246994 0.3106501
vn -0.01950059 0.9981148 0.05819384
vn 0.9819539 0.01460563 0.1885559
vn -0.03188168 -0.9949531 0.09514167
vn -0.9981033 0.05902361 0.01749121
vn 0.1607822 0.8625164 -0.4798068
vn 0.9941649 0.008330137 0.107549
vn -0.1729571 -0.8388584 0.5161418
vn -0.996212 0.05394583 -0.06820171
vn 0.2782508 0.48279 -0.8303555
vn 0.9909553 0.01036185 0.1337914
vn -0.2782486 -0.4827903 0.8303561
vn -0.9726848 0.04331126 -0.2280535
vn -0.5149662 0.8404256 -0.1688035
vn 0.1907226 0.0147099 -0.9815338
vn 0.02793603 0.05948355 0.9978383
vn 0.6202863 -0.7575639 0.2033269
vn -0.02401624 0.9996805 -0.007872384
vn -0.00924068 0.996966 -0.05739956
vn 0.005534878 0.9942515 -0.1069267
vn 0.06622533 0.005107859 -0.9977916
vn 0.06816652 -0.006878855 -0.9975764
vn 0.07010772 -0.01886557 -0.997361
vn -0.0713085 0.05361367 0.9960124
vn -0.06950864 0.06657677 0.995271
vn -0.06770879 0.07953988 0.9945295
vn 0.006814118 -0.9999743 0.002233631
vn 0.01538674 -0.996473 0.05906792
vn 0.02395937 -0.9929716 0.1159022
vn 0.9258433 0.2782416 0.2557261
vn 0.1683916 -0.04531318 -0.9846781
vn -0.05776536 0.07671252 0.9953785
vn -0.9258435 -0.2782417 -0.2557254
vn 0.6905361 -0.6643533 0.2859976
vn 0.1846611 -0.04969117 0.9815453
vn 0.06894956 -0.07989227 -0.994416
vn -0.6675548 0.6892482 -0.2816159

usemtl ramas_y_rocas
f 4/4/1 3/3/1 2/2/1 1/1/1
f 3/3/2 6/6/2 5/5/2 2/2/2
f 8/8/3 7/7/3 10/10/3 9/9/3
f 11/11/4 8/8/4 9/9/4 12/12/4
f 12/12/6 14/14/7 13/13/6 11/11/5
f 14/14/9 4/4/10 1/1/9 13/13/8
f 15/15/12 5/5/11 6/6/13 16/16/11
f 7/7/15 15/15/14 16/16/16 10/10/14
f 20/20/18 19/19/19 18/18/18 17/17/17
f 19/19/21 22/22/22 21/21/21 18/18/20
f 17/17/23 18/18/24 24/24/23 23/23/22
f 18/18/26 21/21/27 25/25/26 24/24/25
f 5/5/28 15/15/28 26/26/28 2/2/28
f 15/15/28 7/7/28 8/8/28 26/26/28
f 2/2/28 26/26/28 13/13/28 1/1/28
f 26/26/28 8/8/28 11/11/28 13/13/28
f 27/27/29 28/28/29 10/10/29 16/16/29
f 28/28/30 29/29/30 9/9/30 10/10/30
f 30/30/31 31/31/31 4/4/31 14/14/31
f 29/29/32 32/32/32 12/12/32 9/9/32
f 32/32/33 30/30/33 14/14/33 12/12/33
f 31/31/34 33/33/34 3/3/34 4/4/34
f 34/34/35 27/27/35 16/16/35 6/6/35
f 33/33/36 34/34/36 6/6/36 3/3/36
f 37/37/37 38/38/37 36/36/37 35/35/37
f 38/38/38 40/40/38 39/39/38 36/36/38
f 43/43/39 44/44/39 42/42/39 41/41/39
f 40/40/40 46/46/40 45/45/40 39/39/40
f 46/46/41 43/43/41 41/41/41 45/45/41
f 44/44/42 48/48/42 47/47/42 42/42/42
f 50/50/43 37/37/43 35/35/43 49/49/43
f 48/48/44 50/50/44 49/49/44 47/47/44
f 51/51/46 52/52/47 38/38/46 37/37/45
f 52/52/49 53/53/50 40/40/49 38/38/48
f 54/54/52 55/55/53 44/44/52 43/43/51
f 53/53/55 56/56/56 46/46/55 40/40/54
f 56/56/58 54/54/59 43/43/58 46/46/57
f 55/55/61 57/57/62 48/48/61 44/44/60
f 58/58/64 51/51/65 37/37/64 50/50/63
f 57/57/67 58/58/68 50/50/67 48/48/66
f 59/59/70 60/60/71 52/52/70 51/51/69
f 60/60/73 61/61/74 53/53/73 52/52/72
f 62/62/76 63/63/77 55/55/76 54/54/75
f 61/61/79 64/64/80 56/56/79 53/53/78
f 64/64/82 62/62/83 54/54/82 56/56/81
f 63/63/85 65/65/86 57/57/85 55/55/84
f 66/66/88 59/59/89 51/51/88 58/58/87
f 65/65/91 66/66/92 58/58/91 57/57/90
f 67/67/94 68/68/95 60/60/94 59/59/93
f 68/68/97 69/69/98 61/61/97 60/60/96
f 70/70/100 71/71/101 63/63/100 62/62/99
f 69/69/103 72/72/104 64/64/103 61/61/102
f 72/72/106 70/70/107 62/62/106 64/64/105
f 71/71/109 73/73/110 65/65/109 63/63/108
f 74/74/112 67/67/113 59/59/112 66/66/111
f 73/73/115 74/74/116 66/66/115 65/65/114
f 75/75/118 76/76/119 68/68/118 67/67/117
f 76/76/121 77/77/122 69/69/121 68/68/120
f 78/78/124 79/79/125 71/71/124 70/70/123
f 77/77/127 80/80/128 72/72/127 69/69/126
f 80/80/130 78/78/131 70/70/130 72/72/129
f 79/79/133 81/81/134 73/73/133 71/71/132
f 82/82/136 75/75/137 67/67/136 74/74/135
f 81/81/139 82/82/140 74/74/139 73/73/138
f 83/83/141 84/84/141 76/76/141 75/75/141
f 84/84/142 85/85/142 77/77/142 76/76/142
f 86/86/143 87/87/143 79/79/143 78/78/143
f 85/85/144 88/88/144 80/80/144 77/77/144
f 88/88/145 86/86/145 78/78/145 80/80/145
f 87/87/146 89/89/146 81/81/146 79/79/146
f 90/90/147 83/83/147 75/75/147 82/82/147
f 89/89/148 90/90/148 82/82/148 81/81/148
f 24/24/150 25/25/151 84/84/150 83/83/149
f 25/25/153 21/21/154 85/85/153 84/84/152
f 19/19/156 20/20/157 87/87/156 86/86/155
f 21/21/159 22/22/160 88/88/159 85/85/158
f 22/22/162 19/19/163 86/86/162 88/88/161
f 20/20/165 17/17/166 89/89/165 87/87/164
f 23/23/168 24/24/169 83/83/168 90/90/167
f 17/17/171 23/23/172 90/90/171 89/89/170
f 91/91/173 92/92/173 35/35/173 36/36/173
f 39/39/174 93/93/174 91/91/174 36/36/174
f 94/94/175 95/95/175 41/41/175 42/42/175
f 96/96/176 93/93/176 39/39/176 45/45/176
f 41/41/177 95/95/177 96/96/177 45/45/177
f 47/47/178 97/97/178 94/94/178 42/42/178
f 35/35/179 92/92/179 98/98/179 49/49/179
f 98/98/180 97/97/180 47/47/180 49/49/180
f 100/100/173 99/99/173 92/92/173 91/91/173
f 28/28/173 27/27/173 99/99/173 100/100/173
f 93/93/174 101/101/174 100/100/174 91/91/174
f 101/101/174 29/29/174 28/28/174 100/100/174
f 105/105/175 104/104/175 103/103/175 102/102/175
f 31/31/175 30/30/175 106/106/175 107/107/175
f 108/108/176 101/101/176 93/93/176 96/96/176
f 111/111/181 110/110/181 109/109/181 112/112/181
f 95/95/177 106/106/177 108/108/177 96/96/177
f 106/106/177 30/30/177 32/32/177 108/108/177
f 97/97/178 113/113/178 107/107/178 94/94/178
f 113/113/178 33/33/178 31/31/178 107/107/178
f 92/92/179 99/99/179 114/114/179 98/98/179
f 99/99/179 27/27/179 34/34/179 114/114/179
f 114/114/180 113/113/180 97/97/180 98/98/180
f 34/34/180 33/33/180 113/113/180 114/114/180
f 115/115/182 116/116/182 95/95/182 94/94/182
f 116/116/183 117/117/183 106/106/183 95/95/183
f 117/117/184 118/118/184 107/107/184 106/106/184
f 118/118/185 115/115/185 94/94/185 107/107/185
f 119/119/186 120/120/186 116/116/186 115/115/186
f 120/120/187 121/121/187 117/117/187 116/116/187
f 121/121/188 122/122/188 118/118/188 117/117/188
f 122/122/189 119/119/189 115/115/189 118/118/189
f 102/102/190 103/103/190 120/120/190 119/119/190
f 103/103/191 104/104/191 121/121/191 120/120/191
f 104/104/192 105/105/192 122/122/192 121/121/192
f 105/105/193 102/102/193 119/119/193 122/122/193
f 123/123/194 124/124/194 101/101/194 108/108/194
f 124/124/195 125/125/195 29/29/195 101/101/195
f 126/126/196 123/123/196 108/108/196 32/32/196
f 125/125/197 126/126/197 32/32/197 29/29/197
f 127/127/199 128/128/200 124/124/199 123/123/198
f 128/128/202 129/129/203 125/125/202 124/124/201
f 130/130/205 127/127/206 123/123/205 126/126/204
f 129/129/208 130/130/209 126/126/208 125/125/207
f 131/131/210 132/132/210 128/128/210 127/127/210
f 132/132/211 133/133/211 129/129/211 128/128/211
f 134/134/212 131/131/212 127/127/212 130/130/212
f 133/133/213 134/134/213 130/130/213 129/129/213
f 112/112/214 109/109/214 132/132/214 131/131/214
f 109/109/215 110/110/215 133/133/215 132/132/215
f 111/111/216 112/112/216 131/131/216 134/134/216
f 110/110/217 111/111/217 134/134/217 133/133/217

