# ProBuilder 5.0.7
# https://unity3d.com/unity/features/worldbuilding/probuilder
# 5/04/2024 6:17:12 p. m.

mtllib ./arbusto.mtl
o arbusto

g Cube (4)
v -1.298909 1.420307 0
v 0 1.770988 0
v 0 1.420307 1.219631
v -0.875792 1.420307 1.005878
v 1.298909 1.420307 0
v 0.8757918 1.420307 1.005878
v -0.875792 1.420307 -1.005878
v 0 1.420307 -1.219631
v 0.8757918 1.420307 -1.005878
v -1.081709 -1.420307 -1.208515
v -1.604311 -1.420307 0
v 0 -1.420307 0
v 0 -1.420307 -1.465324
v 1.60431 -1.420307 0
v 1.081709 -1.420307 -1.208515
v -1.081709 -1.420307 1.208511
v 0 -1.420307 1.465321
v 1.081709 -1.420307 1.208511
v -2.065798 0 0
v -1.392868 0 1.599762
v -1.392868 0 -1.599762
v 2.065798 0 0
v 1.392868 0 -1.599762
v 1.392868 0 1.599762
v 0 0 1.939713
v 0 0 -1.939713

vt 0.9723268 0.09164996
vt 0.9107563 0.09124155
vt 0.9110116 0.1492347
vt 0.9523535 0.13913
vt 0.8496965 0.09169944
vt 0.8696697 0.1391634
vt 0.9523535 0.04418603
vt 0.9110116 0.03411474
vt 0.8696697 0.04421939
vt 0.8609771 0.03637417
vt 0.8363047 0.09342906
vt 0.9120454 0.09342906
vt 0.9120454 0.02425002
vt 0.9877861 0.09342906
vt 0.9631137 0.03637417
vt 0.8609771 0.1504838
vt 0.9120454 0.1626079
vt 0.9631137 0.1504838
vt 0.9690808 0.02203576
vt 0.9120167 0.01980973
vt 0.9120085 0.08462208
vt 0.9875464 0.08748835
vt 0.9120222 0.1546713
vt 0.959518 0.1564735
vt 0.8549712 0.02203965
vt 0.8364946 0.08749352
vt 0.8645415 0.1564768
vt 0.8365011 0.08749955
vt 0.9631202 0.02227649
vt 0.9120532 0.02136464
vt 0.9120558 0.08654502
vt 0.9778123 0.08775207
vt 0.9120519 0.1559646
vt 0.9533976 0.1567236
vt 0.8609836 0.02227562
vt 0.8462957 0.08775095
vt 0.870704 0.1567228

vn -0.1255762 0.9651285 0.1337388
vn -0.2511524 0.9302571 0.2674776
vn 0 1 0
vn 0.1631941 0.9592828 0.192348
vn 0.2590967 0.9596826 0.1089876
vn 0.0672916 0.958883 0.2757084
vn -0.1631941 0.9592829 -0.1923479
vn -0.06729159 0.9588831 -0.2757084
vn -0.2590967 0.9596826 -0.1089875
vn 0.1255762 0.9651285 -0.1337388
vn 0.2511523 0.9302571 -0.2674776
vn 0 -1 0
vn -0.8801603 -0.2904001 0.3754192
vn -0.8795743 -0.2857917 0.380358
vn -0.8807464 -0.2950085 0.3704804
vn -0.8252121 0.44557 0.3471203
vn -0.8798053 -0.2916868 -0.3752517
vn -0.8765939 -0.2964633 -0.379068
vn -0.8830166 -0.2869102 -0.3714354
vn -0.825212 0.4455701 -0.3471202
vn 0.8798052 -0.2916871 -0.3752516
vn 0.8830165 -0.2869106 -0.3714353
vn 0.8765939 -0.2964636 -0.3790678
vn 0.8252119 0.4455701 -0.3471205
vn 0.8801603 -0.2904004 0.3754191
vn 0.8807464 -0.2950087 0.3704804
vn 0.8795742 -0.2857921 0.3803578
vn 0.8252119 0.4455701 0.3471205
vn 0.2227675 -0.3067289 0.9253525
vn 0.2196812 -0.3090636 0.9253215
vn 0.2258538 -0.3043942 0.9253833
vn 0.212705 0.4418464 0.8715092
vn -0.2228089 -0.3061135 0.9255457
vn -0.2200882 -0.3035865 0.9270364
vn -0.2255296 -0.3086405 0.9240549
vn -0.2127049 0.4418476 0.8715087
vn -0.2228091 -0.3061112 -0.9255463
vn -0.2255298 -0.3086382 -0.9240556
vn -0.2200884 -0.3035842 -0.9270371
vn -0.2127061 0.4418469 -0.8715087
vn 0.2227677 -0.3067266 -0.9253531
vn 0.225854 -0.304392 -0.925384
vn 0.2196814 -0.3090613 -0.9253222
vn 0.2127061 0.4418473 -0.8715085

usemtl ramas_y_rocas
f 4/4/3 3/3/1 2/2/2 1/1/1
f 3/3/6 6/6/4 5/5/5 2/2/4
f 1/1/9 2/2/7 8/8/8 7/7/7
f 2/2/11 5/5/10 9/9/3 8/8/10
f 13/13/12 12/12/12 11/11/12 10/10/12
f 15/15/12 14/14/12 12/12/12 13/13/12
f 12/12/12 17/17/12 16/16/12 11/11/12
f 14/14/12 18/18/12 17/17/12 12/12/12
f 20/22/15 19/21/13 11/20/14 16/19/13
f 4/24/16 1/23/16 19/21/16 20/22/16
f 19/21/19 21/26/17 10/25/18 11/20/17
f 1/23/20 7/27/20 21/26/20 19/21/20
f 15/19/23 23/22/21 22/21/22 14/20/21
f 23/22/24 9/24/24 5/23/24 22/21/24
f 14/20/27 22/21/25 24/28/26 18/25/25
f 22/21/28 5/23/28 6/27/28 24/28/28
f 24/32/31 25/31/29 17/30/30 18/29/29
f 6/34/32 3/33/32 25/31/32 24/32/32
f 25/31/35 20/36/33 16/35/34 17/30/33
f 3/33/36 4/37/36 20/36/36 25/31/36
f 10/29/39 21/32/37 26/31/38 13/30/37
f 21/32/40 7/34/40 8/33/40 26/31/40
f 13/30/43 26/31/41 23/36/42 15/35/41
f 26/31/44 8/33/44 9/37/44 23/36/44

