# ProBuilder 5.0.7
# https://unity3d.com/unity/features/worldbuilding/probuilder
# 5/04/2024 7:17:00 p. m.

mtllib ./rosa.mtl
o rosa

g Plane (2)
v 0.3208616 0 -0.1752396
v 0.5132837 0 0
v 0 0 -0.2742519
v 0 0 0
v 0.3208616 0 0.1752396
v 0 0 0.2742519
v -0.5132837 0 -0.2079773
v -0.7690119 0 0
v -0.5132837 0 0.2079773
v -0.5533521 1.065928 -4.060174
v -0.2549651 1.286455 -4.064576
v -0.1774529 1.695477 -3.939282
v -0.6593734 1.555448 -3.854446
v -0.4124767 2.01369 -3.758976
v -0.765396 2.044971 -3.648723
v -0.9062737 1.097208 -3.949921
v -1.141297 1.415419 -3.76961
v -1.063785 1.824443 -3.644321
v 0.9209379 -0.3078521 2.047148
v 1.112821 -0.3240435 1.984729
v 1.239152 -0.4951526 1.879763
v 0.9762393 -0.5715456 1.926046
v 1.19498 -0.7158039 1.804812
v 1.031541 -0.8352391 1.804944
v 0.7574987 -0.4272873 2.047279
v 0.7133271 -0.6479385 1.972328
v 0.8396583 -0.8190477 1.867362
v 0.8569902 -0.2688329 1.74829
v 0.999688 -0.2808722 1.701872
v 0.8163974 -0.250555 1.547868
v 0.9212569 -0.259405 1.513757
v 0.7354444 -0.3576521 1.748389
v 0.727082 -0.3158253 1.547939
v 0.9392425 -0.661036 1.56817
v 0.7965448 -0.6489967 1.614588
v 0.8768394 -0.5387599 1.415509
v 0.7719796 -0.5299102 1.44962
v 1.060788 -0.5722169 1.568071
v 0.9661546 -0.4734899 1.415438
v 0.7025952 -0.5217459 1.692649
v 0.7029428 -0.4364046 1.506981
v 1.093637 -0.408123 1.623811
v 0.9902935 -0.3529106 1.456396
v 0.6972682 -0.3441231 1.114376
v 0.7650549 -0.3498465 1.092324
v 0.8383965 -0.2297038 1.118755
v 0.7937685 -0.1692587 1.155836
v 0.65264 -0.2836781 1.151456
v 0.725982 -0.1635352 1.177887
v 0.668245 -0.2057314 1.177933
v 0.8227918 -0.3076504 1.092279
v 0.6198859 -0.223337 0.7511401
v 0.6677954 -0.2284139 0.7402655
v 0.7141973 -0.1410697 0.7415842
v 0.6802177 -0.09607923 0.7546124
v 0.5859061 -0.1783465 0.7641683
v 0.6323084 -0.09100211 0.7654869
v 0.5935262 -0.1212687 0.7698734
v 0.7065774 -0.1981475 0.7358792
v 0.5318078 -0.1421029 0.3848874
v 0.5797174 -0.1471799 0.3740128
v 0.6261193 -0.05983555 0.3753315
v 0.5921396 -0.01484513 0.3883596
v 0.4978281 -0.09711242 0.3979156
v 0.5442303 -0.009768039 0.3992341
v 0.5054481 -0.04003459 0.4036206
v 0.6184993 -0.1169134 0.3696264
v 0.3410959 0.0114806 -0.4449684
v 0.3856977 0.01152286 -0.4661834
v 0.4449611 0.07896033 -0.4246619
v 0.420535 0.1091633 -0.3817717
v 0.3166699 0.04168347 -0.4020778
v 0.3759335 0.109121 -0.3605563
v 0.3338435 0.08397385 -0.3665107
v 0.4277874 0.03667006 -0.4602293
v 0.2486065 0.1411144 -0.7563925
v 0.2919942 0.1439997 -0.7798119
v 0.3559758 0.2003946 -0.7297145
v 0.3350537 0.2223982 -0.6804532
v 0.2276846 0.1631178 -0.7071304
v 0.2916666 0.2195126 -0.657033
v 0.2483622 0.1972088 -0.6651922
v 0.335298 0.1663039 -0.7716535
v 0.1179937 0.388768 -1.08958
v 0.164969 0.3846037 -1.104255
v 0.2150025 0.4683995 -1.088164
v 0.1837199 0.5107547 -1.064165
v 0.08671132 0.4311227 -1.06558
v 0.1367449 0.5149188 -1.049489
v 0.0970284 0.4855652 -1.048904
v 0.2046852 0.4139575 -1.104841
v 0.007059544 0.5401548 -1.469876
v 0.05403486 0.5359906 -1.484551
v 0.1040684 0.6197865 -1.46846
v 0.07278579 0.6621416 -1.444461
v -0.02422282 0.5825096 -1.445876
v 0.02581084 0.6663057 -1.429785
v -0.0139057 0.636952 -1.429199
v 0.09375104 0.5653443 -1.485137
v -0.04118913 0.5021564 -1.537214
v 0.05187407 0.4939077 -1.566287
v 0.1509965 0.6599154 -1.534409
v 0.08902222 0.7438254 -1.486864
v -0.1031631 0.5860658 -1.489667
v -0.00404039 0.7520741 -1.45779
v -0.08272362 0.6939222 -1.45663
v 0.1305567 0.5520597 -1.567448
v -0.2231386 0.3258643 -1.759993
v 0.05837107 0.3009119 -1.847938
v 0.3582087 0.803075 -1.751508
v 0.1707411 1.056897 -1.607686
v -0.4106052 0.579685 -1.616168
v -0.1107668 1.08185 -1.519742
v -0.3487777 0.9059436 -1.516231
v 0.2963803 0.4768181 -1.851448
v -0.432807 0.2531919 -2.139928
v 0.007948399 0.2141237 -2.277622
v 0.4773997 1.000353 -2.126643
v 0.1838847 1.397759 -1.901464
v -0.7263207 0.6505948 -1.914743
v -0.2568683 1.436827 -1.76377
v -0.6295183 1.161413 -1.758274
v 0.3805959 0.4895377 -2.283118
v -0.6662839 0.3348122 -2.71651
v -0.120343 0.2864223 -2.887063
v 0.4611421 1.260284 -2.700053
v 0.09758008 1.752531 -2.421134
v -1.029844 0.8270563 -2.437583
v -0.4483576 1.800921 -2.250581
v -0.9099404 1.459781 -2.243773
v 0.3412366 0.6275618 -2.893871
v -0.9506204 0.7228336 -3.69125
v -0.4046795 0.6744435 -3.861804
v 0.1768056 1.648305 -3.674794
v -0.1867563 2.140552 -3.395875
v -1.314181 1.215078 -3.412324
v -0.7326941 2.188943 -3.225322
v -1.194277 1.847803 -3.218513
v 0.05690014 1.015583 -3.868612
v -0.9123865 0.840354 -3.929686
v -0.4689681 0.7621746 -4.082191
v -0.9042869 1.204196 -4.181976
v -0.6176403 1.153659 -4.280562
v 0.1067446 1.743915 -3.914972
v -0.2568174 2.236161 -3.636053
v -0.247514 1.791086 -4.179461
v -0.4825376 2.1093 -3.999154
v -1.384242 1.310687 -3.652502
v -1.020681 0.8184426 -3.931428
v -1.211358 1.511028 -4.009788
v -0.9763348 1.192817 -4.190099
v -0.7969826 2.276674 -3.44571
v -1.156043 1.965323 -3.456949
v -0.8296841 2.132702 -3.86911
v -1.061798 1.931432 -3.876376
v -0.10991 1.073525 -4.070952
v -0.3855285 1.354929 -4.273297
v -0.01316082 1.111192 -4.10879
v -0.3250262 1.382065 -4.304754
v -1.264338 1.943412 -3.458692
v -1.133846 1.920053 -3.884499
v -0.3535665 2.198494 -3.598215
v -0.54304 2.082164 -3.967697
v 0.311937 -0.1558998 0.1872711
v 0.5202003 -0.04524962 0.07718894
v -0.01210558 -0.2418676 0.206286
v 0.02087582 -0.1019839 -0.02729263
v 0.3540856 0.02286299 -0.1112301
v 0.05385722 0.03789985 -0.2608712
v -0.50346 -0.2647984 0.0453586
v -0.7272221 -0.1869843 -0.183829
v -0.4534375 -0.05263788 -0.308907

vt 0.6224372 0.8513129
vt 0.6274029 0.8575432
vt 0.6062675 0.8449366
vt 0.5950683 0.8506327
vt 0.6081252 0.8585922
vt 0.583869 0.8563287
vt 0.5712265 0.8394026
vt 0.5466239 0.8402792
vt 0.5542408 0.8480417
vt 0.7260088 0.8344036
vt 0.7449856 0.8539596
vt 0.7447522 0.8865951
vt 0.7109289 0.8719442
vt 0.7225838 0.9097294
vt 0.6958491 0.9094848
vt 0.699274 0.8341591
vt 0.6771055 0.8572932
vt 0.6768721 0.8899289
vt 0.569487 0.8837304
vt 0.5841237 0.8838698
vt 0.5963684 0.871263
vt 0.577916 0.8632702
vt 0.5966464 0.8534728
vt 0.5863451 0.8428101
vt 0.5591857 0.8730676
vt 0.5594637 0.8552774
vt 0.5717084 0.8426707
vt 0.5776626 0.8794279
vt 0.5885475 0.8795316
vt 0.5832898 0.8760141
vt 0.5912884 0.8760902
vt 0.5700017 0.8714983
vt 0.5776604 0.870187
vt 0.5901995 0.8489966
vt 0.5793146 0.8488927
vt 0.5925023 0.8536521
vt 0.5845037 0.8535761
vt 0.5978603 0.856926
vt 0.5981317 0.8594792
vt 0.5702085 0.8582681
vt 0.5778123 0.8604652
vt 0.5976535 0.8701562
vt 0.5979798 0.869201
vt 0.593487 0.8587751
vt 0.5986578 0.8588241
vt 0.6021987 0.8688757
vt 0.5978731 0.8733291
vt 0.5891615 0.8632286
vt 0.5927023 0.8732802
vt 0.5890633 0.869513
vt 0.6022968 0.8625912
vt 0.6034452 0.8587499
vt 0.6069074 0.8588093
vt 0.6097766 0.865652
vt 0.6071041 0.8686538
vt 0.6007726 0.8617518
vt 0.6036419 0.8685945
vt 0.6010197 0.8660183
vt 0.6095296 0.8613855
vt 0.6128528 0.8557148
vt 0.6163149 0.8557741
vt 0.6191842 0.8626168
vt 0.6165116 0.8656186
vt 0.6101802 0.8587167
vt 0.6130495 0.8655593
vt 0.6104273 0.8629832
vt 0.6189371 0.8583503
vt 0.6347263 0.8467969
vt 0.6384024 0.8469598
vt 0.6404402 0.8533997
vt 0.63715 0.8561023
vt 0.6314362 0.8494995
vt 0.6334739 0.8559394
vt 0.6310656 0.8534668
vt 0.6408107 0.8494324
vt 0.6416171 0.8482715
vt 0.6453066 0.8485737
vt 0.6472915 0.8544726
vt 0.6439618 0.8567736
vt 0.6382874 0.8505725
vt 0.6402723 0.8564714
vt 0.6378775 0.8541381
vt 0.6477014 0.850907
vt 0.6469949 0.8571455
vt 0.6505534 0.857178
vt 0.6530482 0.864125
vt 0.6500975 0.8672042
vt 0.6440442 0.8602247
vt 0.646539 0.8671716
vt 0.6440132 0.8645687
vt 0.6530793 0.859781
vt 0.6555361 0.8584831
vt 0.6590946 0.8585156
vt 0.6615894 0.8654625
vt 0.6586388 0.8685417
vt 0.6525854 0.8615623
vt 0.6550803 0.8685092
vt 0.6525544 0.8659062
vt 0.6616205 0.8611186
vt 0.6552464 0.8537418
vt 0.6622962 0.8538063
vt 0.6672388 0.8675688
vt 0.6613932 0.873669
vt 0.6494008 0.8598421
vt 0.6543434 0.8736046
vt 0.6493393 0.8684478
vt 0.6673003 0.858963
vt 0.6528817 0.8341703
vt 0.6742069 0.8343653
vt 0.6891576 0.8759961
vt 0.6714749 0.8944491
vt 0.635199 0.8526233
vt 0.6501499 0.8942541
vt 0.6350129 0.8786551
vt 0.6893438 0.8499643
vt 0.6551884 0.8183057
vt 0.6885769 0.818611
vt 0.7119849 0.8837916
vt 0.6842995 0.9126832
vt 0.6275027 0.8471972
vt 0.6509112 0.912378
vt 0.6272114 0.8879549
vt 0.7122765 0.843034
vt 0.6640254 0.808972
vt 0.7053819 0.8093503
vt 0.7343763 0.8900861
vt 0.7000837 0.9258727
vt 0.6297325 0.8447586
vt 0.6587273 0.9254946
vt 0.6293716 0.895243
vt 0.7347374 0.8396017
vt 0.6859174 0.8124004
vt 0.7272739 0.8127786
vt 0.7562684 0.8935145
vt 0.7219757 0.9293011
vt 0.6516246 0.848187
vt 0.6806194 0.928923
vt 0.6512637 0.8986714
vt 0.7566295 0.8430301
vt 0.6980627 0.8162923
vt 0.7322237 0.8135538
vt 0.7088753 0.8369491
vt 0.7309586 0.8351788
vt 0.7616626 0.8943593
vt 0.72737 0.9301459
vt 0.7501464 0.8874398
vt 0.727978 0.9105741
vt 0.6570189 0.8490317
vt 0.6913117 0.8132452
vt 0.6824998 0.858138
vt 0.7046683 0.8350039
vt 0.6855692 0.9296981
vt 0.6634089 0.9025633
vt 0.7007989 0.91026
vt 0.6864734 0.8927189
vt 0.7543838 0.8406885
vt 0.745284 0.8527198
vt 0.7620237 0.8438749
vt 0.7503799 0.8548043
vt 0.6566579 0.8995161
vt 0.6822664 0.8907737
vt 0.7197301 0.9269595
vt 0.722882 0.9084896
vt 0.6070716 0.8476723
vt 0.6246866 0.8560324
vt 0.5858819 0.8376116
vt 0.5974979 0.8431187
vt 0.6219163 0.8547101
vt 0.6091139 0.8486258
vt 0.5615003 0.8260287
vt 0.5567632 0.8237712
vt 0.5791181 0.8343813

vn 0 1 0
vn -0.2551854 0.3270939 -0.9098846
vn 0.2615836 -0.3569721 0.8967413
vn 0.1171367 0.9876665 0.1038929
vn 0.1061372 0.9919574 0.0689591
vn -0.5746742 0.7866523 0.2256717
vn -0.5792126 0.7928196 0.1896044
vn -0.2368195 -0.8243393 -0.5141802
vn -0.2444995 -0.8031251 -0.5433323
vn -0.2445133 -0.8031193 -0.5433347
vn 0.454992 -0.6233273 -0.6359602
vn 0.4408211 -0.6039861 -0.6639861
vn -0.9811522 0.1592224 0.1094921
vn -0.9823521 0.1706399 0.07659206
vn -0.842351 -0.5026221 -0.194463
vn -0.8447009 -0.4857216 -0.2248443
vn 0.8685108 -0.005506654 -0.4956395
vn 0.851981 0.007277523 -0.5235223
vn 0.7297106 0.6563383 -0.1916833
vn 0.7143292 0.663632 -0.222095
vn -0.2156066 -0.8736746 -0.4361268
vn 0.7650315 0.6340357 -0.1128074
vn -0.831668 -0.5430998 -0.1156332
vn -0.559457 0.7659029 0.3168606
vn 0.4885104 -0.6690866 -0.5600721
vn 0.9060097 -0.03819016 -0.4215304
vn -0.9726471 0.1291298 0.1930886
vn 0.1446597 0.9704958 0.192903
vn -0.1702803 -0.945345 -0.2780781
vn -0.1671209 -0.9454902 -0.2794762
vn -0.1639616 -0.9456354 -0.2808743
vn 0.7683268 0.6314505 -0.1046143
vn 0.773247 0.6251314 -0.1059894
vn 0.7781672 0.6188122 -0.1073645
vn -0.8100878 -0.5859748 -0.01978212
vn -0.8058105 -0.5916378 -0.02382295
vn -0.8015331 -0.5973009 -0.02786378
vn -0.568647 0.7783645 0.2660628
vn -0.5714883 0.7763775 0.2657576
vn -0.5743295 0.7743905 0.2654525
vn 0.5395827 -0.7387404 -0.4038728
vn 0.5370125 -0.7409486 -0.4032381
vn 0.5344424 -0.7431566 -0.4026035
vn 0.9408323 -0.07619276 -0.3301958
vn 0.9399804 -0.08424512 -0.3305661
vn 0.9391285 -0.09229748 -0.3309364
vn -0.9709932 0.1251973 0.2037105
vn -0.9725051 0.1177291 0.2007661
vn -0.974017 0.1102608 0.1978217
vn 0.1291908 0.9813384 0.1424247
vn 0.1326163 0.9809381 0.1419906
vn 0.1360418 0.9805378 0.1415564
vn -0.1441963 -0.9728369 -0.1810962
vn 0.7892116 0.6117328 -0.0541119
vn -0.7892115 -0.611733 0.05411186
vn -0.5640392 0.7670484 0.3057723
vn 0.5640397 -0.7670479 -0.3057722
vn 0.9616765 -0.1029865 -0.2541104
vn -0.9616764 0.1029871 0.2541105
vn 0.1442002 0.9728365 0.1810952
vn -0.1377048 -0.9791164 -0.1495611
vn -0.1082107 -0.9809248 -0.158505
vn -0.07871658 -0.9827332 -0.1674489
vn 0.78589 0.6142306 -0.07139776
vn 0.7611204 0.6442753 -0.0634473
vn 0.736351 0.67432 -0.05549685
vn -0.7858908 -0.6142296 0.07139812
vn -0.7643913 -0.6409894 0.05927125
vn -0.7428919 -0.6677493 0.04714437
vn -0.5780631 0.7768782 0.2496063
vn -0.5502769 0.7963613 0.2486998
vn -0.5224907 0.8158444 0.2477933
vn 0.5713005 -0.7722961 -0.277803
vn 0.5465106 -0.7908315 -0.2737465
vn 0.5217208 -0.8093669 -0.2696899
vn 0.9648327 -0.1047081 -0.2411099
vn 0.9585974 -0.1419621 -0.2439326
vn 0.952362 -0.1792161 -0.2467554
vn -0.9668267 0.1058366 0.2324754
vn -0.9595944 0.142526 0.2396153
vn -0.9523621 0.1792154 0.2467553
vn 0.1333144 0.9827039 0.1285316
vn 0.0994962 0.9853342 0.1342883
vn 0.06567802 0.9879645 0.1400449
vn -0.1601008 -0.9272689 -0.338438
vn -0.144491 -0.9269973 -0.3456907
vn -0.1288811 -0.9267258 -0.3529434
vn 0.7879122 0.6155995 0.01521808
vn 0.7727062 0.6338623 0.02282804
vn 0.7575001 0.6521251 0.03043801
vn -0.7879125 -0.6155992 -0.01521786
vn -0.7772045 -0.6283251 -0.02721099
vn -0.7664964 -0.6410511 -0.03920412
vn -0.5080103 0.7499706 0.4236384
vn -0.4921489 0.7591448 0.4256158
vn -0.4762875 0.7683191 0.4275932
vn 0.5025471 -0.7323374 -0.4594869
vn 0.4882909 -0.7431884 -0.4570735
vn 0.4740346 -0.7540394 -0.4546601
vn 0.9396585 -0.108794 -0.3243544
vn 0.9349241 -0.131727 -0.3286308
vn 0.9301898 -0.1546601 -0.3329072
vn -0.941927 0.1181231 0.3143575
vn -0.9360583 0.1363918 0.3236324
vn -0.9301897 0.1546605 0.3329073
vn 0.1481095 0.9380527 0.3132424
vn 0.1289284 0.939667 0.3162653
vn 0.1097474 0.9412814 0.3192881
vn -0.2271127 -0.8221252 -0.5220441
vn -0.2309332 -0.8223147 -0.5200478
vn -0.2347537 -0.8225043 -0.5180516
vn 0.8211097 0.5623738 0.09754337
vn 0.8232334 0.5596371 0.0952668
vn 0.8253572 0.5569005 0.09299024
vn -0.8211109 -0.5623722 -0.09754178
vn -0.8230651 -0.5600409 -0.09433183
vn -0.8250193 -0.5577096 -0.09112188
vn -0.4426375 0.6237364 0.6442243
vn -0.4457942 0.6220059 0.6437104
vn -0.4489508 0.6202753 0.6431965
vn 0.443841 -0.6278515 -0.6393806
vn 0.4473175 -0.6252739 -0.6394692
vn 0.450794 -0.6226963 -0.6395578
vn 0.9136128 -0.05931691 -0.4022352
vn 0.9146503 -0.05537645 -0.4004102
vn 0.9156877 -0.05143598 -0.3985853
vn -0.9131938 0.0575883 0.4034362
vn -0.9144405 0.05451278 0.4010112
vn -0.9156873 0.05143726 0.3985862
vn 0.2291214 0.8194132 0.5254192
vn 0.2325814 0.8191422 0.5243079
vn 0.2360413 0.8188711 0.5231966
vn -0.1816876 -0.9306938 -0.317488
vn 0.8047974 0.5935476 0.00151428
vn -0.8047966 -0.5935488 -0.001514968
vn -0.5287628 0.7242622 0.4425544
vn 0.5287647 -0.7242608 -0.4425543
vn 0.947004 -0.08453777 -0.309898
vn -0.947004 0.08453764 0.309898
vn 0.1816882 0.9306937 0.3174879
vn 0.06358645 -0.8879579 0.4555081
vn 0.06359282 -0.8879619 0.4554991
vn 0.7437994 0.1855002 0.6421465
vn -0.3890514 -0.6546202 0.64816
vn -0.1716777 0.2512846 0.9525665
vn 0.5559784 -0.7448894 0.3688193
vn 0.8541824 -0.2933811 0.4293018
vn -0.4838267 -0.1712051 0.8582544
vn 0.3059059 0.3900436 0.8684974
vn 0.1035195 -0.8193679 0.5638439
vn 0.6864857 0.09883254 0.7203954
vn -0.2863421 -0.6236477 0.7273732
vn -0.09847075 0.1528587 0.98333
vn 0.5227672 -0.6975489 0.4900407
vn 0.781594 -0.3133432 0.5393764
vn -0.3685182 -0.2077147 0.9061176
vn 0.3088373 0.2712073 0.9116283
vn -0.02412723 -0.9793671 0.2006438
vn 0.8216785 0.3535841 0.4470152
vn -0.5778758 -0.6813601 0.4492306
vn -0.3167772 0.4453291 0.8374569
vn 0.5927151 -0.8001339 0.09205797
vn 0.9550691 -0.2359403 0.1793748
vn -0.6947516 -0.08703598 0.7139643
vn 0.283546 0.6197615 0.7317768
vn -0.116626 -0.9888353 -0.09275274
vn 0.8391942 0.503871 0.2046147
vn -0.7292462 -0.6535125 0.2027841
vn -0.4497462 0.6213344 0.6416166
vn 0.5783945 -0.7868861 -0.2151051
vn 0.9828157 -0.1560477 -0.09860171
vn -0.8634534 0.009142119 0.5043458
vn 0.2354841 0.8204356 0.520992
vn -0.3580284 -0.5266507 -0.7710088
vn 0.4967287 0.6755874 -0.5448323
vn -0.7933936 -0.279604 -0.5406924
vn -0.6378003 0.7428742 -0.2033438
vn 0.3149538 -0.3311041 -0.8894797
vn 0.6042086 0.1264896 -0.7867226
vn -0.9178846 0.2645511 -0.2958049
vn 0.05459189 0.9440584 -0.3252285
vn -0.5977398 -0.7893935 -0.1398753
vn -0.8411585 0.3713016 0.3931763
vn 0.841159 -0.3713008 -0.3931759
vn 0.5977394 0.7893937 0.1398759
vn 0.5300298 -0.657531 -0.5248716
vn 0.5313035 -0.5907952 -0.6071884
vn 0.2365611 0.8992242 0.360031
vn 0.2914466 0.8677534 0.4025703
vn 0.7294737 0.5105715 -0.4551757
vn 0.7552927 0.5260014 -0.3830845
vn 0.7811116 0.5414313 -0.3109933
vn -0.4970163 0.6831704 0.5350261
vn -0.5464201 0.677188 0.4880107
vn -0.5958239 0.6712057 0.4409953
vn -0.2198027 -0.8605946 -0.4594167
vn -0.2409121 -0.8905298 -0.3746991
vn -0.2620215 -0.9204648 -0.2899815
vn -0.9844499 0.1625803 0.06652823
vn -0.9756486 0.01597924 -0.07644476
vn -0.9668474 -0.1306218 -0.2194178
vn 0.1382867 0.9764478 0.1656092
vn 0.2001548 0.9484564 0.2277945
vn 0.2620228 0.920465 0.2899799
vn 0.8485009 0.004876709 -0.5291715
vn 0.8048797 0.1997134 -0.5218871
vn 0.7612584 0.39455 -0.5146027
vn -0.9299566 -0.2480565 -0.271383
vn -0.9221472 -0.306386 -0.2236817
vn -0.9143378 -0.3647154 -0.1759803
vn -0.2048602 -0.944538 -0.2446252
vn -0.2280445 -0.9583814 -0.1717583
vn -0.5833267 0.7253417 0.3491504
vn -0.6378987 0.7264149 0.2557471
vn 0.5546905 -0.7574106 -0.3444529
vn 0.5752555 -0.7143093 -0.3927245
vn 0.5958204 -0.6712081 -0.4409962
vn 0.1979667 -0.8530135 -0.4828843

usemtl ramas_y_rocas
f 3/3/1 4/4/1 2/2/1 1/1/1
f 4/4/1 6/6/1 5/5/1 2/2/1
f 7/7/1 8/8/1 4/4/1 3/3/1
f 8/8/1 9/9/1 6/6/1 4/4/1
f 13/13/2 12/12/2 11/11/2 10/10/2
f 15/15/2 14/14/2 12/12/2 13/13/2
f 17/17/2 13/13/2 10/10/2 16/16/2
f 18/18/2 15/15/2 13/13/2 17/17/2
f 21/21/3 20/20/3 19/19/3 22/22/3
f 23/23/3 21/21/3 22/22/3 24/24/3
f 22/22/3 19/19/3 25/25/3 26/26/3
f 24/24/3 22/22/3 26/26/3 27/27/3
f 29/29/4 28/28/4 19/19/4 20/20/4
f 31/31/5 30/30/5 28/28/5 29/29/5
f 28/28/6 32/32/6 25/25/6 19/19/6
f 30/30/7 33/33/7 32/32/7 28/28/7
f 24/24/8 27/27/8 35/35/8 34/34/8
f 34/34/9 35/35/10 37/37/10 36/36/10
f 23/23/11 24/24/11 34/34/11 38/38/11
f 38/38/12 34/34/12 36/36/12 39/39/12
f 32/32/13 40/40/13 26/26/13 25/25/13
f 33/33/14 41/41/14 40/40/14 32/32/14
f 40/40/15 35/35/15 27/27/15 26/26/15
f 41/41/16 37/37/16 35/35/16 40/40/16
f 21/21/17 23/23/17 38/38/17 42/42/17
f 42/42/18 38/38/18 39/39/18 43/43/18
f 20/20/19 21/21/19 42/42/19 29/29/19
f 29/29/20 42/42/20 43/43/20 31/31/20
f 44/44/21 45/45/21 36/36/21 37/37/21
f 46/46/22 47/47/22 31/31/22 43/43/22
f 48/48/23 44/44/23 37/37/23 41/41/23
f 49/49/24 50/50/24 33/33/24 30/30/24
f 45/45/25 51/51/25 39/39/25 36/36/25
f 51/51/26 46/46/26 43/43/26 39/39/26
f 50/50/27 48/48/27 41/41/27 33/33/27
f 47/47/28 49/49/28 30/30/28 31/31/28
f 52/52/30 53/53/31 45/45/30 44/44/29
f 54/54/33 55/55/34 47/47/33 46/46/32
f 56/56/36 52/52/37 44/44/36 48/48/35
f 57/57/39 58/58/40 50/50/39 49/49/38
f 53/53/42 59/59/43 51/51/42 45/45/41
f 59/59/45 54/54/46 46/46/45 51/51/44
f 58/58/48 56/56/49 48/48/48 50/50/47
f 55/55/51 57/57/52 49/49/51 47/47/50
f 60/60/53 61/61/53 53/53/53 52/52/53
f 62/62/54 63/63/54 55/55/54 54/54/54
f 64/64/55 60/60/55 52/52/55 56/56/55
f 65/65/56 66/66/56 58/58/56 57/57/56
f 61/61/57 67/67/57 59/59/57 53/53/57
f 67/67/58 62/62/58 54/54/58 59/59/58
f 66/66/59 64/64/59 56/56/59 58/58/59
f 63/63/60 65/65/60 57/57/60 55/55/60
f 68/68/62 69/69/63 61/61/62 60/60/61
f 70/70/65 71/71/66 63/63/65 62/62/64
f 72/72/68 68/68/69 60/60/68 64/64/67
f 73/73/71 74/74/72 66/66/71 65/65/70
f 69/69/74 75/75/75 67/67/74 61/61/73
f 75/75/77 70/70/78 62/62/77 67/67/76
f 74/74/80 72/72/81 64/64/80 66/66/79
f 71/71/83 73/73/84 65/65/83 63/63/82
f 76/76/86 77/77/87 69/69/86 68/68/85
f 78/78/89 79/79/90 71/71/89 70/70/88
f 80/80/92 76/76/93 68/68/92 72/72/91
f 81/81/95 82/82/96 74/74/95 73/73/94
f 77/77/98 83/83/99 75/75/98 69/69/97
f 83/83/101 78/78/102 70/70/101 75/75/100
f 82/82/104 80/80/105 72/72/104 74/74/103
f 79/79/107 81/81/108 73/73/107 71/71/106
f 84/84/110 85/85/111 77/77/110 76/76/109
f 86/86/113 87/87/114 79/79/113 78/78/112
f 88/88/116 84/84/117 76/76/116 80/80/115
f 89/89/119 90/90/120 82/82/119 81/81/118
f 85/85/122 91/91/123 83/83/122 77/77/121
f 91/91/125 86/86/126 78/78/125 83/83/124
f 90/90/128 88/88/129 80/80/128 82/82/127
f 87/87/131 89/89/132 81/81/131 79/79/130
f 92/92/133 93/93/133 85/85/133 84/84/133
f 94/94/134 95/95/134 87/87/134 86/86/134
f 96/96/135 92/92/135 84/84/135 88/88/135
f 97/97/136 98/98/136 90/90/136 89/89/136
f 93/93/137 99/99/137 91/91/137 85/85/137
f 99/99/138 94/94/138 86/86/138 91/91/138
f 98/98/139 96/96/139 88/88/139 90/90/139
f 95/95/140 97/97/140 89/89/140 87/87/140
f 100/100/141 101/101/142 93/93/141 92/92/141
f 102/102/143 103/103/143 95/95/143 94/94/143
f 104/104/144 100/100/144 92/92/144 96/96/144
f 105/105/145 106/106/145 98/98/145 97/97/145
f 101/101/146 107/107/146 99/99/146 93/93/146
f 107/107/147 102/102/147 94/94/147 99/99/147
f 106/106/148 104/104/148 96/96/148 98/98/148
f 103/103/149 105/105/149 97/97/149 95/95/149
f 108/108/150 109/109/150 101/101/150 100/100/150
f 110/110/151 111/111/151 103/103/151 102/102/151
f 112/112/152 108/108/152 100/100/152 104/104/152
f 113/113/153 114/114/153 106/106/153 105/105/153
f 109/109/154 115/115/154 107/107/154 101/101/154
f 115/115/155 110/110/155 102/102/155 107/107/155
f 114/114/156 112/112/156 104/104/156 106/106/156
f 111/111/157 113/113/157 105/105/157 103/103/157
f 116/116/158 117/117/158 109/109/158 108/108/158
f 118/118/159 119/119/159 111/111/159 110/110/159
f 120/120/160 116/116/160 108/108/160 112/112/160
f 121/121/161 122/122/161 114/114/161 113/113/161
f 117/117/162 123/123/162 115/115/162 109/109/162
f 123/123/163 118/118/163 110/110/163 115/115/163
f 122/122/164 120/120/164 112/112/164 114/114/164
f 119/119/165 121/121/165 113/113/165 111/111/165
f 124/124/166 125/125/166 117/117/166 116/116/166
f 126/126/167 127/127/167 119/119/167 118/118/167
f 128/128/168 124/124/168 116/116/168 120/120/168
f 129/129/169 130/130/169 122/122/169 121/121/169
f 125/125/170 131/131/170 123/123/170 117/117/170
f 131/131/171 126/126/171 118/118/171 123/123/171
f 130/130/172 128/128/172 120/120/172 122/122/172
f 127/127/173 129/129/173 121/121/173 119/119/173
f 132/132/133 133/133/133 125/125/133 124/124/133
f 134/134/134 135/135/134 127/127/134 126/126/134
f 136/136/135 132/132/135 124/124/135 128/128/135
f 137/137/136 138/138/136 130/130/136 129/129/136
f 133/133/137 139/139/137 131/131/137 125/125/137
f 139/139/138 134/134/138 126/126/138 131/131/138
f 138/138/139 136/136/139 128/128/139 130/130/139
f 135/135/140 137/137/140 129/129/140 127/127/140
f 142/142/174 143/143/174 141/141/174 140/140/174
f 146/146/175 147/147/175 145/145/175 144/144/175
f 150/150/176 151/151/176 149/149/176 148/148/176
f 154/154/177 155/155/177 153/153/177 152/152/177
f 143/143/178 157/157/178 156/156/178 141/141/178
f 159/159/179 146/146/179 144/144/179 158/158/179
f 161/161/180 150/150/180 148/148/180 160/160/180
f 163/163/181 154/154/181 152/152/181 162/162/181
f 158/158/138 144/144/138 134/134/138 139/139/138
f 159/159/182 158/158/182 139/139/182 11/11/182
f 145/145/183 147/147/183 14/14/183 135/135/183
f 146/146/139 159/159/139 11/11/139 12/12/139
f 144/144/134 145/145/134 135/135/134 134/134/134
f 147/147/135 146/146/135 12/12/135 14/14/135
f 148/148/135 149/149/135 132/132/135 136/136/135
f 150/150/138 161/161/138 18/18/138 17/17/138
f 149/149/184 151/151/184 16/16/184 132/132/184
f 151/151/134 150/150/134 17/17/134 16/16/134
f 160/160/139 148/148/139 136/136/139 138/138/139
f 161/161/185 160/160/185 138/138/185 18/18/185
f 141/141/186 156/156/187 139/139/186 133/133/137
f 143/143/188 142/142/189 16/16/188 10/10/140
f 156/156/191 157/157/192 11/11/191 139/139/190
f 157/157/194 143/143/195 10/10/194 11/11/193
f 140/140/197 141/141/198 133/133/197 132/132/196
f 142/142/200 140/140/201 132/132/200 16/16/199
f 162/162/203 152/152/204 137/137/203 135/135/202
f 163/163/206 162/162/207 135/135/206 14/14/205
f 153/153/209 155/155/210 18/18/209 138/138/208
f 154/154/211 163/163/212 14/14/211 15/15/133
f 152/152/213 153/153/214 138/138/213 137/137/136
f 155/155/216 154/154/217 15/15/216 18/18/215
f 166/166/218 167/167/218 165/165/218 164/164/218
f 167/167/218 169/169/218 168/168/218 165/165/218
f 170/170/218 171/171/218 167/167/218 166/166/218
f 171/171/218 172/172/218 169/169/218 167/167/218

